<svg id="visual" viewBox="0 0 900 600" width="900" height="600" xmlns="http://www.w3.org/2000/svg" xmlns:xlink="http://www.w3.org/1999/xlink" version="1.1"><rect width="900" height="600" fill="#363b6c"></rect><g><g transform="translate(520 336)"><path d="M52.7 -62.8C64.4 -53 67.4 -32.7 65.9 -15.4C64.5 1.9 58.6 16.1 50.2 27.4C41.8 38.7 31 47 17 56.4C3 65.7 -14.2 76 -30.2 74.1C-46.2 72.2 -61.1 58 -65.6 41.9C-70.1 25.8 -64.4 7.7 -60.2 -9.8C-56.1 -27.2 -53.7 -44.1 -43.9 -54.4C-34.1 -64.6 -17.1 -68.2 1.7 -70.2C20.5 -72.2 41 -72.7 52.7 -62.8Z" fill="#474d91"></path></g><g transform="translate(765 535)"><path d="M44.4 -47.3C60.6 -39.2 79.1 -28.2 82.1 -14.1C85.1 0.1 72.5 17.4 59.4 28.7C46.2 40 32.3 45.4 16.8 54.9C1.2 64.3 -16 77.8 -32.7 77.3C-49.4 76.7 -65.6 62 -73.3 44.4C-81 26.8 -80.1 6.4 -74.4 -10.9C-68.8 -28.3 -58.3 -42.6 -45 -51.2C-31.8 -59.8 -15.9 -62.7 -0.9 -61.5C14 -60.4 28.1 -55.3 44.4 -47.3Z" fill="#474d91"></path></g><g transform="translate(711 134)"><path d="M25 -30.6C31.7 -24.1 36 -15.6 36.3 -7.3C36.6 0.9 33 8.9 28.2 15.3C23.4 21.6 17.3 26.3 9.9 30.3C2.6 34.3 -6.2 37.6 -12.6 35.1C-19 32.5 -23 24.1 -25.3 16.4C-27.6 8.7 -28.1 1.8 -26.4 -4C-24.6 -9.9 -20.5 -14.8 -15.8 -21.6C-11 -28.3 -5.5 -37 1.8 -39.2C9.1 -41.3 18.3 -37 25 -30.6Z" fill="#474d91"></path></g><g transform="translate(16 559)"><path d="M24.8 -29.5C34.5 -21.5 46.2 -15.8 48.6 -7.7C51 0.3 44.1 10.9 36.5 18.2C28.8 25.5 20.5 29.5 11.8 32.7C3.2 36 -5.9 38.5 -15.9 37.5C-26 36.6 -37.1 32.2 -42 24.1C-46.9 15.9 -45.6 4 -41.2 -4.8C-36.7 -13.7 -29.1 -19.7 -21.7 -28.1C-14.3 -36.6 -7.2 -47.6 0.2 -47.8C7.6 -48.1 15.1 -37.6 24.8 -29.5Z" fill="#474d91"></path></g><g transform="translate(237 518)"><path d="M31.5 -36.2C43.1 -27.8 56.4 -20 62.7 -7.6C69.1 4.9 68.5 22 61.3 36.3C54.1 50.5 40.4 61.8 24.3 68.2C8.3 74.6 -10 76.2 -24.7 69.9C-39.4 63.7 -50.4 49.6 -59.4 34.2C-68.4 18.8 -75.4 2.2 -74.2 -14.6C-73.1 -31.3 -63.8 -48.2 -50.1 -56.2C-36.4 -64.3 -18.2 -63.6 -4.1 -58.7C9.9 -53.8 19.9 -44.7 31.5 -36.2Z" fill="#474d91"></path></g><g transform="translate(352 174)"><path d="M24.4 -29.4C30.5 -24 33.4 -15.2 33 -7.4C32.5 0.5 28.5 7.3 24.3 13.5C20.1 19.7 15.6 25.1 10.1 26.7C4.5 28.2 -2 25.9 -7.5 22.9C-13 19.9 -17.4 16.3 -20.8 11.5C-24.1 6.7 -26.4 0.8 -26.2 -5.3C-25.9 -11.5 -23.2 -18 -18.5 -23.6C-13.7 -29.2 -6.8 -33.9 1.2 -35.3C9.2 -36.7 18.4 -34.8 24.4 -29.4Z" fill="#474d91"></path></g><g transform="translate(190 16)"><path d="M10.5 -13.1C13.2 -10.3 14.6 -6.6 14.8 -3C14.9 0.6 13.9 4 11.9 6.5C10 9.1 7.3 10.8 4.2 12.3C1 13.9 -2.5 15.2 -5.7 14.5C-9 13.9 -12 11.3 -13.9 8C-15.8 4.8 -16.6 0.8 -15.9 -2.7C-15.1 -6.1 -12.7 -9.2 -9.8 -11.9C-6.9 -14.7 -3.4 -17 0.3 -17.3C3.9 -17.6 7.9 -15.8 10.5 -13.1Z" fill="#474d91"></path></g><g transform="translate(39 297)"><path d="M25.5 -32.9C32.1 -24.8 35.8 -15.9 40.7 -4.7C45.6 6.5 51.7 19.9 47.5 27.5C43.2 35.2 28.7 37 15.4 41.3C2.2 45.7 -9.8 52.7 -21 51.3C-32.2 50 -42.6 40.3 -45.6 29.2C-48.5 18.1 -44 5.6 -43.4 -9.4C-42.9 -24.4 -46.3 -41.9 -39.8 -49.9C-33.2 -57.9 -16.6 -56.5 -3.6 -52.3C9.4 -48 18.9 -40.9 25.5 -32.9Z" fill="#474d91"></path></g><g transform="translate(891 337)"><path d="M13.2 -15.1C16.7 -12.8 18.9 -8.2 19.3 -3.7C19.7 0.8 18.4 5.3 16.3 9.8C14.2 14.3 11.3 18.8 6.8 21.8C2.2 24.9 -4 26.6 -7.9 24.1C-11.8 21.6 -13.2 15.1 -14.5 9.8C-15.7 4.6 -16.8 0.7 -17 -3.9C-17.3 -8.6 -16.8 -14 -13.9 -16.4C-10.9 -18.8 -5.5 -18.1 -0.3 -17.7C4.8 -17.4 9.7 -17.4 13.2 -15.1Z" fill="#474d91"></path></g><g transform="translate(454 546)"><path d="M24.4 -30.4C30.2 -24.1 32.7 -15.2 34.6 -5.9C36.5 3.4 37.8 13 34.9 22.1C32 31.2 24.8 39.8 16.6 40.7C8.4 41.5 -0.9 34.6 -9.3 29.7C-17.7 24.8 -25.2 21.9 -31.1 15.9C-36.9 10 -41 1 -38.6 -5.8C-36.2 -12.7 -27.4 -17.4 -19.9 -23.4C-12.4 -29.5 -6.2 -36.8 1.5 -38.7C9.3 -40.5 18.5 -36.8 24.4 -30.4Z" fill="#474d91"></path></g><g transform="translate(510 23)"><path d="M43 -48.5C55.6 -40.8 65.4 -27 65.4 -13.5C65.4 0 55.6 13.2 47.4 27.4C39.3 41.7 32.8 56.9 22.1 60.8C11.5 64.6 -3.3 57.1 -19.5 51.9C-35.8 46.7 -53.6 44 -64.4 33.3C-75.2 22.6 -79.1 4 -77 -14.5C-74.9 -33 -66.7 -51.4 -52.9 -59C-39.1 -66.5 -19.5 -63.1 -2.1 -60.6C15.2 -58 30.5 -56.3 43 -48.5Z" fill="#474d91"></path></g></g></svg>