<svg width="188" height="89" viewBox="0 0 188 89" fill="none" xmlns="http://www.w3.org/2000/svg">
<circle cx="1.77359" cy="1.77359" r="1.77359" fill="black"/>
<circle cx="15.9623" cy="1.77359" r="1.77359" fill="black"/>
<circle cx="30.1509" cy="1.77359" r="1.77359" fill="black"/>
<circle cx="44.3397" cy="1.77359" r="1.77359" fill="black"/>
<circle cx="58.5283" cy="1.77359" r="1.77359" fill="black"/>
<circle cx="72.717" cy="1.77359" r="1.77359" fill="black"/>
<circle cx="86.9057" cy="1.77359" r="1.77359" fill="black"/>
<circle cx="101.094" cy="1.77359" r="1.77359" fill="black"/>
<circle cx="115.283" cy="1.77359" r="1.77359" fill="black"/>
<circle cx="129.472" cy="1.77359" r="1.77359" fill="black"/>
<circle cx="143.66" cy="1.77359" r="1.77359" fill="black"/>
<circle cx="157.849" cy="1.77359" r="1.77359" fill="black"/>
<circle cx="172.038" cy="1.77359" r="1.77359" fill="black"/>
<circle cx="186.226" cy="1.77359" r="1.77359" fill="black"/>
<circle cx="1.77359" cy="15.9622" r="1.77359" fill="black"/>
<circle cx="15.9623" cy="15.9622" r="1.77359" fill="black"/>
<circle cx="30.1509" cy="15.9622" r="1.77359" fill="black"/>
<circle cx="44.3397" cy="15.9622" r="1.77359" fill="black"/>
<circle cx="58.5283" cy="15.9622" r="1.77359" fill="black"/>
<circle cx="72.717" cy="15.9622" r="1.77359" fill="black"/>
<circle cx="86.9057" cy="15.9622" r="1.77359" fill="black"/>
<circle cx="101.094" cy="15.9622" r="1.77359" fill="black"/>
<circle cx="115.283" cy="15.9622" r="1.77359" fill="black"/>
<circle cx="129.472" cy="15.9622" r="1.77359" fill="black"/>
<circle cx="143.66" cy="15.9622" r="1.77359" fill="black"/>
<circle cx="157.849" cy="15.9622" r="1.77359" fill="black"/>
<circle cx="172.038" cy="15.9622" r="1.77359" fill="black"/>
<circle cx="186.226" cy="15.9622" r="1.77359" fill="black"/>
<circle cx="1.77359" cy="30.151" r="1.77359" fill="black"/>
<circle cx="15.9623" cy="30.151" r="1.77359" fill="black"/>
<circle cx="30.1509" cy="30.151" r="1.77359" fill="black"/>
<circle cx="44.3397" cy="30.151" r="1.77359" fill="black"/>
<circle cx="58.5283" cy="30.151" r="1.77359" fill="black"/>
<circle cx="72.717" cy="30.151" r="1.77359" fill="black"/>
<circle cx="86.9057" cy="30.151" r="1.77359" fill="black"/>
<circle cx="101.094" cy="30.151" r="1.77359" fill="black"/>
<circle cx="115.283" cy="30.151" r="1.77359" fill="black"/>
<circle cx="129.472" cy="30.151" r="1.77359" fill="black"/>
<circle cx="143.66" cy="30.151" r="1.77359" fill="black"/>
<circle cx="157.849" cy="30.151" r="1.77359" fill="black"/>
<circle cx="172.038" cy="30.151" r="1.77359" fill="black"/>
<circle cx="186.226" cy="30.151" r="1.77359" fill="black"/>
<circle cx="1.77359" cy="44.3396" r="1.77359" fill="black"/>
<circle cx="15.9623" cy="44.3396" r="1.77359" fill="black"/>
<circle cx="30.1509" cy="44.3396" r="1.77359" fill="black"/>
<circle cx="44.3397" cy="44.3396" r="1.77359" fill="black"/>
<circle cx="58.5283" cy="44.3396" r="1.77359" fill="black"/>
<circle cx="72.717" cy="44.3396" r="1.77359" fill="black"/>
<circle cx="86.9057" cy="44.3396" r="1.77359" fill="black"/>
<circle cx="101.094" cy="44.3396" r="1.77359" fill="black"/>
<circle cx="115.283" cy="44.3396" r="1.77359" fill="black"/>
<circle cx="129.472" cy="44.3396" r="1.77359" fill="black"/>
<circle cx="143.66" cy="44.3396" r="1.77359" fill="black"/>
<circle cx="157.849" cy="44.3396" r="1.77359" fill="black"/>
<circle cx="172.038" cy="44.3396" r="1.77359" fill="black"/>
<circle cx="186.226" cy="44.3396" r="1.77359" fill="black"/>
<circle cx="1.77359" cy="58.5283" r="1.77359" fill="black"/>
<circle cx="15.9623" cy="58.5283" r="1.77359" fill="black"/>
<circle cx="30.1509" cy="58.5283" r="1.77359" fill="black"/>
<circle cx="44.3397" cy="58.5283" r="1.77359" fill="black"/>
<circle cx="58.5283" cy="58.5283" r="1.77359" fill="black"/>
<circle cx="72.717" cy="58.5283" r="1.77359" fill="black"/>
<circle cx="86.9057" cy="58.5283" r="1.77359" fill="black"/>
<circle cx="101.094" cy="58.5283" r="1.77359" fill="black"/>
<circle cx="115.283" cy="58.5283" r="1.77359" fill="black"/>
<circle cx="129.472" cy="58.5283" r="1.77359" fill="black"/>
<circle cx="143.66" cy="58.5283" r="1.77359" fill="black"/>
<circle cx="157.849" cy="58.5283" r="1.77359" fill="black"/>
<circle cx="172.038" cy="58.5283" r="1.77359" fill="black"/>
<circle cx="186.226" cy="58.5283" r="1.77359" fill="black"/>
<circle cx="1.77359" cy="72.717" r="1.77359" fill="black"/>
<circle cx="15.9623" cy="72.717" r="1.77359" fill="black"/>
<circle cx="30.1509" cy="72.717" r="1.77359" fill="black"/>
<circle cx="44.3397" cy="72.717" r="1.77359" fill="black"/>
<circle cx="58.5283" cy="72.717" r="1.77359" fill="black"/>
<circle cx="72.717" cy="72.717" r="1.77359" fill="black"/>
<circle cx="86.9057" cy="72.717" r="1.77359" fill="black"/>
<circle cx="101.094" cy="72.717" r="1.77359" fill="black"/>
<circle cx="115.283" cy="72.717" r="1.77359" fill="black"/>
<circle cx="129.472" cy="72.717" r="1.77359" fill="black"/>
<circle cx="143.66" cy="72.717" r="1.77359" fill="black"/>
<circle cx="157.849" cy="72.717" r="1.77359" fill="black"/>
<circle cx="172.038" cy="72.717" r="1.77359" fill="black"/>
<circle cx="186.226" cy="72.717" r="1.77359" fill="black"/>
<circle cx="1.77359" cy="86.9057" r="1.77359" fill="black"/>
<circle cx="15.9623" cy="86.9057" r="1.77359" fill="black"/>
<circle cx="30.1509" cy="86.9057" r="1.77359" fill="black"/>
<circle cx="44.3397" cy="86.9057" r="1.77359" fill="black"/>
<circle cx="58.5283" cy="86.9057" r="1.77359" fill="black"/>
<circle cx="72.717" cy="86.9057" r="1.77359" fill="black"/>
<circle cx="86.9057" cy="86.9057" r="1.77359" fill="black"/>
<circle cx="101.094" cy="86.9057" r="1.77359" fill="black"/>
<circle cx="115.283" cy="86.9057" r="1.77359" fill="black"/>
<circle cx="129.472" cy="86.9057" r="1.77359" fill="black"/>
<circle cx="143.66" cy="86.9057" r="1.77359" fill="black"/>
<circle cx="157.849" cy="86.9057" r="1.77359" fill="black"/>
<circle cx="172.038" cy="86.9057" r="1.77359" fill="black"/>
<circle cx="186.226" cy="86.9057" r="1.77359" fill="black"/>
</svg>
