<svg width="28" height="150" viewBox="0 0 28 150" fill="none" xmlns="http://www.w3.org/2000/svg">
<circle cx="23" cy="125" r="4.5" transform="rotate(-90 23 125)" stroke="black"/>
<circle cx="23" cy="105" r="4.5" transform="rotate(-90 23 105)" stroke="black"/>
<circle cx="23" cy="85" r="4.5" transform="rotate(-90 23 85)" stroke="black"/>
<circle cx="23" cy="65" r="4.5" transform="rotate(-90 23 65)" stroke="black"/>
<circle cx="23" cy="45" r="4.5" transform="rotate(-90 23 45)" stroke="black"/>
<circle cx="23" cy="25" r="4.5" transform="rotate(-90 23 25)" stroke="black"/>
<circle cx="23" cy="5" r="4.5" transform="rotate(-90 23 5)" stroke="black"/>
<circle cx="5" cy="145" r="4.5" transform="rotate(-90 5 145)" stroke="black"/>
<circle cx="5" cy="125" r="4.5" transform="rotate(-90 5 125)" stroke="black"/>
<circle cx="5" cy="105" r="4.5" transform="rotate(-90 5 105)" stroke="black"/>
<circle cx="5" cy="85" r="4.5" transform="rotate(-90 5 85)" stroke="black"/>
<circle cx="5" cy="65" r="4.5" transform="rotate(-90 5 65)" stroke="black"/>
<circle cx="5" cy="45" r="4.5" transform="rotate(-90 5 45)" stroke="black"/>
<circle cx="5" cy="25" r="4.5" transform="rotate(-90 5 25)" stroke="black"/>
</svg>
