<svg width="1440" height="412" viewBox="0 0 1440 412" fill="none" xmlns="http://www.w3.org/2000/svg">
<path d="M0 377.467L23.7314 338.467C47.2897 299.467 94.7526 221.467 142.042 205C189.332 188.533 236.795 233.6 283.738 267.4C330.854 301.2 377.624 323.733 424.741 308.133C471.684 292.533 519.147 238.8 566.437 248.333C613.726 257.867 661.189 330.667 708.479 324.6C755.769 318.533 803.231 233.6 850.521 165.133C897.811 96.6667 945.274 44.6667 992.563 75.0001C1039.85 105.333 1087.32 218 1134.26 261.333C1181.38 304.667 1228.15 278.667 1275.26 260.467C1322.21 242.267 1369.67 231.867 1416.96 246.6C1464.25 261.333 1511.71 301.2 1535.27 321.133L1559 341.067V141.733L1535.27 147.8C1511.71 153.867 1464.25 166 1416.96 179C1369.67 192 1322.21 205.867 1275.26 204.133C1228.15 202.4 1181.38 185.067 1134.26 140C1087.32 94.9334 1039.85 22.1334 992.563 4.80006C945.274 -12.5333 897.811 25.6001 850.521 97.5334C803.231 169.467 755.769 275.2 708.479 284.733C661.189 294.267 613.726 207.6 566.437 172.933C519.147 138.267 471.684 155.6 424.741 178.133C377.624 200.667 330.854 228.4 283.738 194.6C236.795 160.8 189.332 65.4667 142.042 62.8667C94.7526 60.2667 47.2897 150.4 23.7314 195.467L0 240.533V377.467Z" fill="#474C92"/>
<path d="M0 413.867H23.7314C47.2897 413.867 94.7526 413.867 142.042 413.867C189.332 413.867 236.795 413.867 283.738 413.867C330.854 413.867 377.624 413.867 424.741 413.867C471.684 413.867 519.147 413.867 566.437 413.867C613.726 413.867 661.189 413.867 708.479 413.867C755.769 413.867 803.231 413.867 850.521 413.867C897.811 413.867 945.274 413.867 992.563 413.867C1039.85 413.867 1087.32 413.867 1134.26 413.867C1181.38 413.867 1228.15 413.867 1275.26 413.867C1322.21 413.867 1369.67 413.867 1416.96 413.867C1464.25 413.867 1511.71 413.867 1535.27 413.867H1559V339.333L1535.27 319.4C1511.71 299.467 1464.25 259.6 1416.96 244.867C1369.67 230.133 1322.21 240.533 1275.26 258.733C1228.15 276.933 1181.38 302.933 1134.26 259.6C1087.32 216.267 1039.85 103.6 992.563 73.2666C945.274 42.9333 897.811 94.9333 850.521 163.4C803.231 231.867 755.769 316.8 708.479 322.867C661.189 328.933 613.726 256.133 566.437 246.6C519.147 237.067 471.684 290.8 424.741 306.4C377.624 322 330.854 299.467 283.738 265.667C236.795 231.867 189.332 186.8 142.042 203.267C94.7526 219.733 47.2897 297.733 23.7314 336.733L0 375.733V413.867Z" fill="#7077FF"/>
</svg>
