<svg width="1440" height="100" viewBox="0 0 1440 100" fill="none" xmlns="http://www.w3.org/2000/svg">
<path d="M-22 0L10.0853 6.82667C42.3413 13.6533 106.512 27.3067 170.512 34.4747C234.512 41.472 298.341 42.1546 362.341 41.472C426.341 40.96 490.512 39.2533 554.512 48.2986C618.512 57.5146 682.341 77.312 746.341 84.1386C810.341 90.9653 874.512 84.8214 938.512 72.8747C1002.51 60.928 1066.34 43.1787 1130.34 40.96C1194.34 38.7413 1258.51 51.712 1322.51 48.9814C1386.51 46.08 1450.34 27.3067 1482.09 17.92L1514 8.53333V136.533L1482.09 136.533C1450.34 136.533 1386.51 136.533 1322.51 136.533C1258.51 136.533 1194.34 136.533 1130.34 136.533C1066.34 136.533 1002.51 136.533 938.512 136.533C874.512 136.533 810.341 136.533 746.341 136.533C682.341 136.533 618.512 136.533 554.512 136.533C490.512 136.533 426.341 136.533 362.341 136.533C298.341 136.533 234.512 136.533 170.512 136.533C106.512 136.533 42.3413 136.533 10.0853 136.533H-22L-22 0Z" fill="#242431"/>
</svg>
