<svg width="1440" height="247" viewBox="0 0 1440 247" fill="none" xmlns="http://www.w3.org/2000/svg">
<path d="M0 4.6L24 30.2C48 55.8 96 107 144 133.4C192 159.8 240 161.4 288 140.12C336 118.68 384 74.52 432 44.6C480 14.68 528 -0.680004 576 36.12C624 72.92 672 161.88 720 160.28C768 158.68 816 66.52 864 44.28C912 22.2 960 70.2 1008 85.4C1056 100.6 1104 83 1152 88.28C1200 93.72 1248 121.88 1296 152.12C1344 182.2 1392 214.2 1416 230.2L1440 246.2V-85H1416C1392 -85 1344 -85 1296 -85C1248 -85 1200 -85 1152 -85C1104 -85 1056 -85 1008 -85C960 -85 912 -85 864 -85C816 -85 768 -85 720 -85C672 -85 624 -85 576 -85C528 -85 480 -85 432 -85C384 -85 336 -85 288 -85C240 -85 192 -85 144 -85C96 -85 48 -85 24 -85H0V4.6Z" fill="#7077FF"/>
</svg>
