<svg width="1440" height="524" viewBox="0 0 1440 524" fill="none" xmlns="http://www.w3.org/2000/svg">
<path d="M1488 394.24L1455.91 395.093C1423.66 395.947 1359.49 397.653 1295.49 376.661C1231.49 355.499 1167.66 311.808 1103.66 329.899C1039.66 348.16 975.488 428.373 911.488 434.859C847.488 441.515 783.659 374.272 719.659 336.725C655.659 299.179 591.488 291.328 527.488 317.781C463.488 344.235 399.659 404.992 335.659 409.6C271.659 414.208 207.488 362.325 143.488 372.053C79.488 381.781 15.6587 452.779 -16.0853 488.448L-48 523.947V-1.70653H-16.0853C15.6587 -1.70653 79.488 -1.70653 143.488 -1.70653C207.488 -1.70653 271.659 -1.70653 335.659 -1.70653C399.659 -1.70653 463.488 -1.70653 527.488 -1.70653C591.488 -1.70653 655.659 -1.70653 719.659 -1.70653C783.659 -1.70653 847.488 -1.70653 911.488 -1.70653C975.488 -1.70653 1039.66 -1.70653 1103.66 -1.70653C1167.66 -1.70653 1231.49 -1.70653 1295.49 -1.70653C1359.49 -1.70653 1423.66 -1.70653 1455.91 -1.70653H1488V394.24Z" fill="#7077FF"/>
<path d="M1488 436.907L1455.91 412.672C1423.66 388.608 1359.49 340.139 1295.49 340.821C1231.49 341.333 1167.66 390.827 1103.66 386.56C1039.66 382.293 975.488 324.267 911.488 302.592C847.488 281.088 783.659 295.765 719.659 293.888C655.659 291.84 591.488 273.067 527.488 278.187C463.488 283.307 399.659 312.32 335.659 314.368C271.659 316.245 207.488 291.328 143.488 308.395C79.488 325.461 15.6587 384.512 -16.0853 414.208L-48 443.733V-1.70661H-16.0853C15.6587 -1.70661 79.488 -1.70661 143.488 -1.70661C207.488 -1.70661 271.659 -1.70661 335.659 -1.70661C399.659 -1.70661 463.488 -1.70661 527.488 -1.70661C591.488 -1.70661 655.659 -1.70661 719.659 -1.70661C783.659 -1.70661 847.488 -1.70661 911.488 -1.70661C975.488 -1.70661 1039.66 -1.70661 1103.66 -1.70661C1167.66 -1.70661 1231.49 -1.70661 1295.49 -1.70661C1359.49 -1.70661 1423.66 -1.70661 1455.91 -1.70661H1488V436.907Z" fill="#5A63CC"/>
<path d="M1488 196.267L1455.91 224.085C1423.66 252.075 1359.49 307.712 1295.49 333.653C1231.49 359.595 1167.66 355.499 1103.66 346.795C1039.66 337.92 975.488 324.267 911.488 308.395C847.488 292.352 783.659 274.261 719.659 255.147C655.659 236.032 591.488 216.235 527.488 217.088C463.488 217.941 399.659 239.445 335.659 264.192C271.659 288.939 207.488 316.928 143.488 317.952C79.488 319.147 15.6587 293.547 -16.0853 280.747L-48 267.947V-1.70666H-16.0853C15.6587 -1.70666 79.488 -1.70666 143.488 -1.70666C207.488 -1.70666 271.659 -1.70666 335.659 -1.70666C399.659 -1.70666 463.488 -1.70666 527.488 -1.70666C591.488 -1.70666 655.659 -1.70666 719.659 -1.70666C783.659 -1.70666 847.488 -1.70666 911.488 -1.70666C975.488 -1.70666 1039.66 -1.70666 1103.66 -1.70666C1167.66 -1.70666 1231.49 -1.70666 1295.49 -1.70666C1359.49 -1.70666 1423.66 -1.70666 1455.91 -1.70666H1488V196.267Z" fill="#474F9B"/>
<path d="M1488 138.24L1455.91 154.112C1423.66 170.155 1359.49 201.899 1295.49 219.819C1231.49 237.739 1167.66 241.835 1103.66 248.832C1039.66 256 975.488 266.24 911.488 253.781C847.488 241.152 783.659 205.995 719.659 189.44C655.659 172.885 591.488 175.275 527.488 187.392C463.488 199.68 399.659 221.867 335.659 233.472C271.659 245.248 207.488 246.272 143.488 250.027C79.488 253.781 15.6587 259.925 -16.0853 263.168L-48 266.24V-1.70666H-16.0853C15.6587 -1.70666 79.488 -1.70666 143.488 -1.70666C207.488 -1.70666 271.659 -1.70666 335.659 -1.70666C399.659 -1.70666 463.488 -1.70666 527.488 -1.70666C591.488 -1.70666 655.659 -1.70666 719.659 -1.70666C783.659 -1.70666 847.488 -1.70666 911.488 -1.70666C975.488 -1.70666 1039.66 -1.70666 1103.66 -1.70666C1167.66 -1.70666 1231.49 -1.70666 1295.49 -1.70666C1359.49 -1.70666 1423.66 -1.70666 1455.91 -1.70666H1488V138.24Z" fill="#363B6C"/>
<path d="M1488 87.0399L1455.91 103.253C1423.66 119.467 1359.49 151.893 1295.49 171.179C1231.49 190.635 1167.66 196.779 1103.66 183.808C1039.66 170.667 975.488 138.24 911.488 126.805C847.488 115.541 783.659 125.099 719.659 133.632C655.659 142.165 591.488 149.675 527.488 159.573C463.488 169.472 399.659 182.101 335.659 177.835C271.659 173.568 207.488 152.405 143.488 145.92C79.488 139.435 15.6587 147.285 -16.0853 151.381L-48 155.307V-1.70674H-16.0853C15.6587 -1.70674 79.488 -1.70674 143.488 -1.70674C207.488 -1.70674 271.659 -1.70674 335.659 -1.70674C399.659 -1.70674 463.488 -1.70674 527.488 -1.70674C591.488 -1.70674 655.659 -1.70674 719.659 -1.70674C783.659 -1.70674 847.488 -1.70674 911.488 -1.70674C975.488 -1.70674 1039.66 -1.70674 1103.66 -1.70674C1167.66 -1.70674 1231.49 -1.70674 1295.49 -1.70674C1359.49 -1.70674 1423.66 -1.70674 1455.91 -1.70674H1488V87.0399Z" fill="#262840"/>
<path d="M1488 134.827L1455.91 128C1423.66 121.173 1359.49 107.52 1295.49 100.352C1231.49 93.3546 1167.66 92.672 1103.66 93.3547C1039.66 93.8667 975.488 95.5733 911.488 86.528C847.488 77.312 783.659 57.5147 719.659 50.688C655.659 43.8613 591.488 50.0053 527.488 61.952C463.488 73.8986 399.659 91.648 335.659 93.8667C271.659 96.0853 207.488 83.1146 143.488 85.8453C79.488 88.7466 15.6587 107.52 -16.0853 116.907L-48 126.293V-1.70668H-16.0853C15.6587 -1.70668 79.488 -1.70668 143.488 -1.70668C207.488 -1.70668 271.659 -1.70668 335.659 -1.70668C399.659 -1.70668 463.488 -1.70668 527.488 -1.70668C591.488 -1.70668 655.659 -1.70668 719.659 -1.70668C783.659 -1.70668 847.488 -1.70668 911.488 -1.70668C975.488 -1.70668 1039.66 -1.70668 1103.66 -1.70668C1167.66 -1.70668 1231.49 -1.70668 1295.49 -1.70668C1359.49 -1.70668 1423.66 -1.70668 1455.91 -1.70668H1488V134.827Z" fill="#242431"/>
</svg>
